<svg width="24" height="24" viewBox="0 0 24 24" fill="none" xmlns="http://www.w3.org/2000/svg">
<path fill-rule="evenodd" clip-rule="evenodd" d="M10.8 1.73494C9.30888 1.73494 8.10005 2.90008 8.10005 4.33735V5.49397C8.10005 5.97306 7.69711 6.36144 7.20005 6.36144C6.70299 6.36144 6.30005 5.97306 6.30005 5.49397V4.33735C6.30005 1.9419 8.31477 0 10.8 0H13.2C15.6853 0 17.7 1.9419 17.7 4.33735V5.49397C17.7 5.97306 17.2971 6.36144 16.8 6.36144C16.303 6.36144 15.9 5.97306 15.9 5.49397V4.33735C15.9 2.90008 14.6912 1.73494 13.2 1.73494H10.8Z" fill="black"/>
<path d="M4.8 5.49396H19.2C21.851 5.49396 24 7.56531 24 10.1205C24 10.1205 21.1674 12.7923 13.9829 13.0713C13.8773 13.0754 13.786 12.9957 13.7643 12.8923C13.598 12.0997 12.8713 11.503 12 11.503C11.154 11.503 10.4443 12.0655 10.2516 12.8237C10.2258 12.9255 10.132 13.0011 10.0273 12.9934C2.82819 12.468 0 10.1205 0 10.1205C0 7.56531 2.14903 5.49396 4.8 5.49396Z" fill="black"/>
<path d="M10.2 14.5832C10.2 14.478 10.1168 14.3907 10.0119 14.3831C4.36144 13.9751 1.20367 12.5436 0 11.87V19.3735C0 21.9286 2.14903 24 4.8 24H19.2C21.851 24 24 21.9286 24 19.3735V11.9183C22.7936 12.6803 19.6283 14.2748 13.9947 14.505C13.887 14.5094 13.8 14.5978 13.8 14.7055V14.8572C13.8 15.8154 12.9941 16.5921 12 16.5921C11.0059 16.5921 10.2 15.8154 10.2 14.8572V14.5832Z" fill="black"/>
<rect x="11.1001" y="12.4337" width="1.8" height="3.23165" rx="0.900001" fill="black"/>
</svg>
