<svg width="60" height="60" viewBox="0 0 60 60" fill="none" xmlns="http://www.w3.org/2000/svg">
<rect width="60" height="60" rx="30" fill="#004989"/>
<rect x="10.5" y="10.5" width="39" height="39" rx="19.5" stroke="white"/>
<path d="M35.4375 28.4145V41.8031C37.5529 41.2347 39.861 39.6546 41.0973 38.7224C41.6808 38.2824 42 37.5884 42 36.8589V24.8047C42 23.7408 40.7151 23.1238 39.8297 23.7173C38.97 24.2934 37.9351 24.9139 36.878 25.3783C36.8554 25.4459 36.8323 25.5132 36.8087 25.5803C36.4724 26.5358 36.0049 27.5146 35.4375 28.4145Z" fill="white"/>
<path d="M25.4375 29.4413V37.9937C27.0351 38.1268 28.2676 39.0618 29.5 39.9968C30.7324 40.9319 31.9649 41.8669 33.5625 42V30.6904C32.6293 31.5289 31.4454 32.2076 30.0775 32.2076C28.8526 32.2076 27.7829 31.6571 26.9463 30.9909C26.3935 30.5506 25.8882 30.0181 25.4375 29.4413Z" fill="white"/>
<path d="M22.7368 22.5505C20.8693 23.2489 18.9794 24.5523 17.9027 25.3643C17.3192 25.8043 17 26.4983 17 27.2278V39.2819C17 40.3459 18.2849 40.9628 19.1703 40.3694C20.4206 39.5315 22.0413 38.5997 23.5625 38.1909V26.1528C23.0729 24.9386 22.7615 23.6761 22.7368 22.5505Z" fill="white"/>
<path fill-rule="evenodd" clip-rule="evenodd" d="M35.2098 25.0214C35.5373 24.0909 35.7253 23.178 35.7253 22.4074C35.7253 19.421 33.1966 17 30.0774 17C27.1838 17 24.7985 19.0833 24.4684 21.7687C24.4427 21.9782 24.4294 22.1913 24.4294 22.4074C24.4294 25.3938 27.2534 30.5185 30.0774 30.5185C32.1727 30.5185 34.268 27.6972 35.2098 25.0214ZM30.0774 23.7592C31.0132 23.7592 31.7718 23.0026 31.7718 22.0694C31.7718 21.1361 31.0132 20.3796 30.0774 20.3796C29.1417 20.3796 28.3831 21.1361 28.3831 22.0694C28.3831 23.0026 29.1417 23.7592 30.0774 23.7592Z" fill="white"/>
</svg>
