<svg width="60" height="60" viewBox="0 0 60 60" fill="none" xmlns="http://www.w3.org/2000/svg">
<rect width="60" height="60" rx="30" fill="#004989"/>
<rect x="10.5" y="10.5" width="39" height="39" rx="19.5" stroke="white"/>
<path fill-rule="evenodd" clip-rule="evenodd" d="M26.5104 21.8646C26.5104 20.2825 27.7929 19 29.375 19H31.4583C33.0404 19 34.3229 20.2825 34.3229 21.8646V22.5582C36.3337 23.597 37.7083 25.6953 37.7083 28.1146V33.1383C34.9629 32.0826 32.7041 31.5312 30.4167 31.5312C28.1292 31.5312 25.8705 32.0826 23.125 33.1383V28.1146C23.125 25.6953 24.4996 23.597 26.5104 22.5582V21.8646ZM32.7604 21.8646V22.0004C32.3404 21.9114 31.9048 21.8646 31.4583 21.8646H29.375C28.9285 21.8646 28.4929 21.9114 28.0729 22.0004V21.8646C28.0729 21.1455 28.6559 20.5625 29.375 20.5625H31.4583C32.1775 20.5625 32.7604 21.1455 32.7604 21.8646ZM30.4167 33.0312C32.5874 33.0312 34.7908 33.585 37.7083 34.7495V36.4479C37.7083 38.7491 35.8429 40.6146 33.5417 40.6146H27.2917C24.9905 40.6146 23.125 38.7491 23.125 36.4479V34.7495C26.0425 33.585 28.2459 33.0312 30.4167 33.0312ZM29.375 26.3229C28.9608 26.3229 28.625 26.6587 28.625 27.0729C28.625 27.4871 28.9608 27.8229 29.375 27.8229H31.4583C31.8725 27.8229 32.2083 27.4871 32.2083 27.0729C32.2083 26.6587 31.8725 26.3229 31.4583 26.3229H29.375ZM20 32.2813C20 31.1307 20.9327 30.1979 22.0833 30.1979V38.5312H22C20.8954 38.5312 20 37.6358 20 36.5312V32.2813ZM38.75 30.1979C39.9006 30.1979 40.8333 31.1307 40.8333 32.2813V36.5312C40.8333 37.6358 39.9379 38.5312 38.8333 38.5312H38.75V30.1979Z" fill="white"/>
</svg>
