<svg width="60" height="60" viewBox="0 0 60 60" fill="none" xmlns="http://www.w3.org/2000/svg">
<rect width="60" height="60" rx="30" fill="#004989"/>
<rect x="10.5" y="10.5" width="39" height="39" rx="19.5" stroke="white"/>
<path fill-rule="evenodd" clip-rule="evenodd" d="M28.4167 29.4583C30.7179 29.4583 32.5833 27.5929 32.5833 25.2917C32.5833 22.9905 30.7179 21.125 28.4167 21.125C26.1155 21.125 24.25 22.9905 24.25 25.2917C24.25 27.5929 26.1155 29.4583 28.4167 29.4583ZM28.4167 39.875C32.4437 39.875 35.7083 38.0095 35.7083 35.7083C35.7083 33.4071 32.4437 31.5417 28.4167 31.5417C24.3896 31.5417 21.125 33.4071 21.125 35.7083C21.125 38.0095 24.3896 39.875 28.4167 39.875ZM32.5432 29.2661C33.5356 28.236 34.1458 26.8351 34.1458 25.2918C34.1458 24.5578 34.0078 23.8561 33.7563 23.2111C35.4213 23.28 36.7499 24.6515 36.7499 26.3334C36.7499 28.0593 35.3508 29.4584 33.6249 29.4584C33.2446 29.4584 32.8802 29.3905 32.5432 29.2661ZM37.2707 35.7083C37.2707 36.2695 37.146 36.8119 36.9135 37.3245C38.691 36.7735 39.8749 35.7892 39.8749 34.6666C39.8749 33.0976 37.5624 31.7987 34.5487 31.5755C36.2264 32.618 37.2707 34.0842 37.2707 35.7083Z" fill="white"/>
</svg>
