<svg width="24" height="24" viewBox="0 0 24 24" fill="none" xmlns="http://www.w3.org/2000/svg">
<path d="M1.23951 9.6L22.7605 9.6C23.9846 9.6 24.4653 7.9783 23.4468 7.28471L13.3726 0.424501C12.5414 -0.1415 11.4586 -0.1415 10.6274 0.424501L0.553218 7.2847C-0.465317 7.97829 0.0153862 9.6 1.23951 9.6Z" fill="black"/>
<path d="M4.2 11.4H7.8V17.4H4.2V11.4Z" fill="black"/>
<path d="M19.8 11.4H16.2V17.4H19.8V11.4Z" fill="black"/>
<path d="M10.2 11.4H13.8V17.4H10.2V11.4Z" fill="black"/>
<path d="M21.9317 19.8633C21.7284 19.4568 21.3129 19.2 20.8584 19.2L3.14164 19.2C2.68711 19.2 2.2716 19.4568 2.06833 19.8633L0.868327 22.2633C0.469386 23.0612 1.04958 24 1.94164 24H22.0584C22.9504 24 23.5306 23.0612 23.1317 22.2633L21.9317 19.8633Z" fill="black"/>
</svg>
