<svg width="18" height="22" viewBox="0 0 18 22" fill="none" xmlns="http://www.w3.org/2000/svg">
<path d="M17 4H18V3.307L17.3511 3.06367L17 4ZM16 9.5C16 10.0523 16.4477 10.5 17 10.5C17.5523 10.5 18 10.0523 18 9.5H16ZM14 6V5H12V6H14ZM6 6V5H4V6H6ZM9 1L9.35112 0.0636708C9.12474 -0.0212236 8.87526 -0.0212236 8.64888 0.0636708L9 1ZM1 4L0.648877 3.06367C0.258573 3.21003 0 3.58316 0 4C0 4.41684 0.258573 4.78997 0.648877 4.93633L1 4ZM9 7L8.64888 7.93633C8.87526 8.02122 9.12474 8.02122 9.35112 7.93633L9 7ZM9.71103 16.0059L9 15.3027L9 15.3027L9.71103 16.0059ZM11.2996 14.3996L12.0106 15.1028L12.0106 15.1027L11.2996 14.3996ZM12.238 14.1441L12.5201 13.1848L12.5201 13.1848L12.238 14.1441ZM6.70045 14.3996L7.41147 13.6964L7.41147 13.6964L6.70045 14.3996ZM8.28897 16.0059L9 15.3027L9 15.3027L8.28897 16.0059ZM5.762 14.1441L5.47987 13.1848L5.47987 13.1848L5.762 14.1441ZM16 21C16 21.5523 16.4477 22 17 22C17.5523 22 18 21.5523 18 21H16ZM0 21C0 21.5523 0.447715 22 1 22C1.55228 22 2 21.5523 2 21H0ZM16 4V9.5H18V4H16ZM12 6V8H14V6H12ZM6 8V6H4V8H6ZM9 11C7.34315 11 6 9.65685 6 8H4C4 10.7614 6.23858 13 9 13V11ZM12 8C12 9.65685 10.6569 11 9 11V13C11.7614 13 14 10.7614 14 8H12ZM8.64888 0.0636708L0.648877 3.06367L1.35112 4.93633L9.35112 1.93633L8.64888 0.0636708ZM9.35112 7.93633L17.3511 4.93633L16.6489 3.06367L8.64888 6.06367L9.35112 7.93633ZM8.64888 1.93633L16.6489 4.93633L17.3511 3.06367L9.35112 0.0636708L8.64888 1.93633ZM9.35112 6.06367L1.35112 3.06367L0.648877 4.93633L8.64888 7.93633L9.35112 6.06367ZM10.4221 16.709L12.0106 15.1028L10.5885 13.6964L9 15.3027L10.4221 16.709ZM11.9559 15.1035C14.5848 15.8766 16 17.491 16 19H18C18 16.1747 15.5015 14.0615 12.5201 13.1848L11.9559 15.1035ZM5.98942 15.1027L7.57795 16.709L9 15.3027L7.41147 13.6964L5.98942 15.1027ZM2 19C2 17.491 3.41522 15.8766 6.04412 15.1035L5.47987 13.1848C2.4985 14.0615 0 16.1747 0 19H2ZM16 19V21H18V19H16ZM0 19V21H2V19H0ZM7.41147 13.6964C6.92868 13.2082 6.19581 12.9742 5.47987 13.1848L6.04412 15.1035C6.02341 15.1096 6.00572 15.1078 5.9964 15.1052C5.9884 15.103 5.98736 15.1007 5.98942 15.1027L7.41147 13.6964ZM12.0106 15.1027C12.0126 15.1007 12.0116 15.103 12.0036 15.1052C11.9943 15.1078 11.9766 15.1096 11.9559 15.1035L12.5201 13.1848C11.8042 12.9742 11.0713 13.2082 10.5885 13.6964L12.0106 15.1027ZM9 15.3027L9 15.3027L7.57795 16.709C8.36075 17.5006 9.63925 17.5006 10.4221 16.709L9 15.3027Z" fill="black"/>
</svg>
